<svg xmlns="http://www.w3.org/2000/svg" xmlns:xlink="http://www.w3.org/1999/xlink" version="1.1" x="0px" y="0px" viewBox="0 0 100 125" style="enable-background:new 0 0 100 100;" xml:space="preserve" fill="#252325"><g><path d="M79.7,34.4c-2.9-4.7-6.9-8.8-11.7-11.7l-3.1,5.4c-0.2,0.3-0.4,0.4-0.7,0.4c-0.1,0-0.3-0.1-0.4-0.1   c-0.4-0.2-0.5-0.7-0.3-1.1l3.1-5.4c-4.8-2.7-10.1-4.2-15.9-4.2v6.3c0,0.4-0.3,0.8-0.8,0.8s-0.8-0.3-0.8-0.8v-6.3   c-5.8,0.1-11.1,1.6-15.9,4.2l3.1,5.4c0.2,0.4,0.1,0.9-0.3,1.1c-0.1,0.1-0.3,0.1-0.4,0.1c-0.3,0-0.5-0.1-0.7-0.4L32,22.7   c-4.8,2.9-8.8,6.9-11.7,11.7l5.4,3.1c0.4,0.3,0.5,0.7,0.3,1.1c-0.1,0.3-0.4,0.4-0.7,0.4c-0.1,0-0.3-0.1-0.4-0.1l-5.4-3.1   c-2.7,4.8-4.2,10.1-4.2,15.9h6.3c0.4,0,0.8,0.3,0.8,0.8c0,0.4-0.3,0.8-0.8,0.8h-6.3c0.1,5.8,1.6,11.1,4.2,15.9l5.4-3.1   c0.4-0.2,0.9-0.1,1.1,0.3c0.3,0.4,0.1,0.8-0.3,1.1l-5.4,3.1c2.9,4.8,6.9,8.8,11.7,11.7l3.1-5.4c0.3-0.4,0.7-0.5,1.1-0.3   c0.4,0.2,0.5,0.7,0.3,1.1l-3.1,5.4c4.8,2.7,10.1,4.2,15.9,4.2v-6.3c0-0.4,0.3-0.8,0.8-0.8s0.8,0.3,0.8,0.8v6.3   c5.8-0.1,11.1-1.6,15.9-4.2l-3.1-5.4c-0.2-0.4-0.1-0.9,0.3-1.1c0.4-0.3,0.8-0.1,1.1,0.3l3.1,5.4c4.8-2.9,8.8-6.9,11.7-11.7   l-5.4-3.1c-0.4-0.3-0.5-0.7-0.3-1.1c0.2-0.4,0.7-0.5,1.1-0.3l5.4,3.1c2.7-4.8,4.2-10.1,4.2-15.9h-6.3c-0.4,0-0.8-0.3-0.8-0.8   c0-0.4,0.3-0.8,0.8-0.8h6.3c-0.1-5.8-1.6-11.1-4.2-15.9l-5.4,3.1C75,38.9,74.8,39,74.7,39c-0.3,0-0.6-0.2-0.7-0.4   c-0.3-0.4-0.1-0.8,0.3-1.1L79.7,34.4z M68.1,63.1c-0.2,0.3-0.4,0.4-0.7,0.4c-0.1,0-0.3-0.1-0.4-0.1l-14.9-8.5   c-0.6,0.4-1.3,0.8-2.2,0.8c-1.8,0-3.2-1.4-3.2-3.2c0-1.5,1-2.7,2.4-3V32.6c0-0.4,0.3-0.8,0.8-0.8s0.8,0.4,0.8,0.8v16.7   c1.4,0.3,2.4,1.5,2.4,3c0,0.4-0.1,0.8-0.2,1.1L67.8,62C68.2,62.2,68.3,62.7,68.1,63.1z"/><path d="M50,14.4c-21,0-38,17-38,38s17,38,38,38s38-17,38-38S71,14.4,50,14.4z M50,88.8c-20.1,0-36.4-16.3-36.4-36.4S29.9,16,50,16   s36.4,16.3,36.4,36.4S70.1,88.8,50,88.8z"/><path d="M81.5,7.3H57.1c1.3,0,2.3-1.1,2.3-2.4c0-1.3-1-2.4-2.3-2.4H42.9c-1.3,0-2.3,1.1-2.3,2.4c0,1.3,1,2.4,2.3,2.4H18.5   C11,7.3,4.9,13.4,4.9,20.9v63c0,7.5,6.1,13.6,13.6,13.6h63c7.5,0,13.6-6.1,13.6-13.6v-63C95.1,13.4,89,7.3,81.5,7.3z M93.6,83.9   c0,6.6-5.4,12.1-12.1,12.1h-63c-6.7,0-12.1-5.4-12.1-12.1v-63c0-6.6,5.4-12.1,12.1-12.1h63c6.7,0,12.1,5.4,12.1,12.1V83.9z"/></g></svg>
